<svg width="60" height="92" viewBox="0 0 60 92" fill="none" xmlns="http://www.w3.org/2000/svg">
<path d="M30 0C46.5685 0 60 13.4315 60 30C60 33.5067 59.3958 36.872 58.29 40H58.333L58.1787 40.3154C57.4826 42.2163 56.5983 44.0261 55.5508 45.7246L35.1289 87.7588C32.9291 92.286 26.4677 92.2556 24.3105 87.708L4.21973 45.3477C1.54069 40.8572 0 35.6088 0 30C0 13.4315 13.4315 0 30 0ZM30 17.333C21.8998 17.333 15.333 23.8998 15.333 32C15.333 40.1002 21.8998 46.667 30 46.667C38.1002 46.667 44.667 40.1002 44.667 32C44.667 23.8998 38.1002 17.333 30 17.333Z" fill="#ACC221"/>
</svg>
