<svg width="98" height="54" viewBox="0 0 98 54" fill="none" xmlns="http://www.w3.org/2000/svg">
<path d="M93 0C95.7614 0 98 2.23858 98 5V49C98 51.7614 95.7614 54 93 54H5C2.23858 54 1.28855e-07 51.7614 0 49V5C1.28855e-07 2.23858 2.23858 0 5 0H93ZM22.8809 22.5762C22.1061 22.5762 21.403 22.7194 20.7715 23.0059C20.1465 23.2923 19.6126 23.709 19.1699 24.2559C18.7337 24.8027 18.3952 25.4668 18.1543 26.248C17.9199 27.0293 17.8027 27.9115 17.8027 28.8945V30.877C17.8027 31.8665 17.9134 32.752 18.1348 33.5332C18.3561 34.3079 18.6849 34.9688 19.1211 35.5156C19.5573 36.0625 20.0944 36.4792 20.7324 36.7656C21.3704 37.0521 22.1029 37.1953 22.9297 37.1953C23.9518 37.1953 24.8438 37.0033 25.6055 36.6191C26.3672 36.235 26.9564 35.6686 27.373 34.9199C27.7962 34.1647 28.0046 33.2533 27.998 32.1855H24.6582C24.6908 32.8105 24.6387 33.2923 24.502 33.6309C24.3652 33.9629 24.1634 34.194 23.8965 34.3242C23.6296 34.4479 23.3073 34.5098 22.9297 34.5098C22.5716 34.5098 22.2786 34.4479 22.0508 34.3242C21.8294 34.2005 21.6536 33.9987 21.5234 33.7188C21.3997 33.4323 21.3151 33.0579 21.2695 32.5957C21.224 32.1335 21.2012 31.5605 21.2012 30.877V28.875C21.2012 28.2044 21.2305 27.638 21.2891 27.1758C21.3477 26.7135 21.4421 26.3424 21.5723 26.0625C21.7025 25.776 21.875 25.571 22.0898 25.4473C22.3047 25.3236 22.5684 25.2617 22.8809 25.2617C23.3366 25.2617 23.7012 25.3366 23.9746 25.4863C24.2546 25.6296 24.4499 25.8802 24.5605 26.2383C24.6712 26.5898 24.7103 27.0749 24.6777 27.6934H28.0176C27.9915 26.6257 27.7767 25.7109 27.373 24.9492C26.9694 24.181 26.39 23.5951 25.6348 23.1914C24.8861 22.7813 23.9681 22.5762 22.8809 22.5762ZM45.6943 22.5762C44.9197 22.5762 44.2164 22.7194 43.585 23.0059C42.96 23.2923 42.4261 23.709 41.9834 24.2559C41.5472 24.8027 41.2087 25.4668 40.9678 26.248C40.7334 27.0293 40.6162 27.9115 40.6162 28.8945V30.877C40.6162 31.8665 40.7269 32.752 40.9482 33.5332C41.1696 34.3079 41.4984 34.9688 41.9346 35.5156C42.3708 36.0625 42.9079 36.4792 43.5459 36.7656C44.1839 37.052 44.9164 37.1953 45.7432 37.1953C46.7652 37.1953 47.6573 37.0032 48.4189 36.6191C49.1806 36.235 49.7699 35.6686 50.1865 34.9199C50.6097 34.1647 50.818 33.2532 50.8115 32.1855H47.4717C47.5042 32.8105 47.4521 33.2923 47.3154 33.6309C47.1787 33.9628 46.9768 34.194 46.71 34.3242C46.4431 34.4479 46.1207 34.5097 45.7432 34.5098C45.3852 34.5098 45.0921 34.4479 44.8643 34.3242C44.6429 34.2005 44.4671 33.9987 44.3369 33.7188C44.2132 33.4323 44.1286 33.0579 44.083 32.5957C44.0374 32.1335 44.0146 31.5605 44.0146 30.877V28.875C44.0146 28.2044 44.0439 27.638 44.1025 27.1758C44.1611 26.7136 44.2555 26.3424 44.3857 26.0625C44.5159 25.7761 44.6885 25.571 44.9033 25.4473C45.1181 25.3236 45.3819 25.2617 45.6943 25.2617C46.15 25.2617 46.5147 25.3366 46.7881 25.4863C47.068 25.6296 47.2634 25.8803 47.374 26.2383C47.4847 26.5898 47.5238 27.0749 47.4912 27.6934H50.8311C50.805 26.6257 50.5901 25.7109 50.1865 24.9492C49.7829 24.181 49.2034 23.595 48.4482 23.1914C47.6996 22.7813 46.7815 22.5762 45.6943 22.5762ZM84.377 22.5762C83.6024 22.5762 82.912 22.7292 82.3066 23.0352C81.7013 23.3411 81.2259 23.7905 80.8809 24.3828C80.5424 24.9752 80.373 25.7078 80.373 26.5801C80.373 27.3222 80.5424 27.9733 80.8809 28.5332C81.1719 28.9999 81.5569 29.3794 82.0332 29.6748C81.7864 29.8141 81.5581 29.9768 81.3496 30.1641C80.9656 30.5091 80.666 30.9291 80.4512 31.4238C80.2364 31.9121 80.1289 32.4656 80.1289 33.084C80.1289 33.9888 80.3145 34.7474 80.6855 35.3594C81.0566 35.9713 81.5613 36.4303 82.1992 36.7363C82.8436 37.0423 83.5698 37.1953 84.377 37.1953C85.1971 37.1953 85.9265 37.0422 86.5645 36.7363C87.2024 36.4304 87.7005 35.9713 88.0586 35.3594C88.4167 34.7474 88.5957 33.9889 88.5957 33.084C88.5957 32.2572 88.4134 31.5475 88.0488 30.9551C87.7189 30.419 87.2766 29.9958 86.7227 29.6836C87.1995 29.387 87.5803 29.0048 87.8633 28.5332C88.2018 27.9733 88.3711 27.3223 88.3711 26.5801C88.3711 25.7077 88.2018 24.9753 87.8633 24.3828C87.5247 23.7904 87.0559 23.3411 86.457 23.0352C85.8581 22.7293 85.1646 22.5762 84.377 22.5762ZM9.47266 22.7812V37H17.6172V34.3633H12.8125V22.7812H9.47266ZM29.082 22.7812V37H32.4219V28.1523L35.9863 37H39.3164V22.7812H35.9863V31.6289L32.4219 22.7812H29.082ZM59.9336 22.7812V37H63.2734V32.1758H64.8945C65.8774 32.1757 66.7241 31.9869 67.4336 31.6094C68.1496 31.2253 68.6999 30.6913 69.084 30.0078C69.4745 29.3243 69.6699 28.5234 69.6699 27.6055C69.6699 26.6745 69.4746 25.8476 69.084 25.125C68.6999 24.3959 68.1496 23.8229 67.4336 23.4062C66.7241 22.9896 65.8774 22.7813 64.8945 22.7812H59.9336ZM71.0371 22.7812V37H79.1816V34.3633H74.377V22.7812H71.0371ZM84.3672 30.9941C84.5819 30.9941 84.7644 31.0659 84.9141 31.209C85.0638 31.3522 85.1777 31.5606 85.2559 31.834C85.3405 32.1009 85.3828 32.4297 85.3828 32.8203C85.3828 33.1979 85.3438 33.5267 85.2656 33.8066C85.1875 34.08 85.0735 34.2917 84.9238 34.4414C84.7741 34.5845 84.5917 34.6562 84.377 34.6562C84.1688 34.6562 83.9862 34.5845 83.8301 34.4414C83.6804 34.2917 83.5599 34.08 83.4688 33.8066C83.3841 33.5267 83.3418 33.1979 83.3418 32.8203C83.3418 32.4297 83.3841 32.1009 83.4688 31.834C83.5533 31.5607 83.6739 31.3522 83.8301 31.209C83.9862 31.0658 84.1655 30.9942 84.3672 30.9941ZM52.5107 29.5977V32.1465H57.6475V29.5977H52.5107ZM64.8945 25.4277C65.2264 25.4278 65.4936 25.532 65.6953 25.7402C65.9035 25.942 66.0534 26.2091 66.1445 26.541C66.2422 26.873 66.291 27.2344 66.291 27.625C66.291 27.9895 66.2422 28.3184 66.1445 28.6113C66.0534 28.8977 65.9035 29.1224 65.6953 29.2852C65.4936 29.4479 65.2264 29.5292 64.8945 29.5293H63.2734V25.4277H64.8945ZM84.377 25.1152C84.5722 25.1152 84.7253 25.1837 84.8359 25.3203C84.9531 25.4505 85.0345 25.6394 85.0801 25.8867C85.1322 26.1276 85.1582 26.4173 85.1582 26.7559C85.1582 27.0944 85.1354 27.3906 85.0898 27.6445C85.0443 27.8984 84.9629 28.097 84.8457 28.2402C84.735 28.3833 84.5819 28.4551 84.3867 28.4551C84.1981 28.455 84.0416 28.3834 83.918 28.2402C83.8009 28.097 83.7161 27.8983 83.6641 27.6445C83.612 27.3906 83.5859 27.0944 83.5859 26.7559C83.5859 26.4108 83.612 26.1178 83.6641 25.877C83.7226 25.6297 83.8106 25.4407 83.9277 25.3105C84.0448 25.1804 84.1948 25.1153 84.377 25.1152ZM11 7C9.89543 7 9 7.89543 9 9C9 10.1046 9.89543 11 11 11H88C89.1046 11 90 10.1046 90 9C90 7.89543 89.1046 7 88 7H11Z" fill="#443C77"/>
</svg>
