<svg width="80" height="80" viewBox="0 0 80 80" fill="none" xmlns="http://www.w3.org/2000/svg">
<path d="M76 0C78.2091 5.15405e-07 80 1.79086 80 4V76C80 78.2091 78.2091 80 76 80H4C1.79086 80 3.22133e-08 78.2091 0 76V4C5.15413e-07 1.79086 1.79086 3.22128e-08 4 0H76ZM54.1445 30.1719C52.676 30.1719 51.3475 30.3829 50.1602 30.8047C48.9885 31.2109 47.9804 31.7892 47.1367 32.5391C46.2931 33.289 45.6445 34.172 45.1914 35.1875C44.7383 36.1875 44.5117 37.2735 44.5117 38.4453H52.2227C52.2227 37.8047 52.2695 37.289 52.3633 36.8984C52.457 36.508 52.6212 36.2188 52.8555 36.0312C53.0897 35.8438 53.3947 35.7501 53.7695 35.75C54.2381 35.75 54.5898 35.8361 54.8242 36.0078C55.0742 36.164 55.2539 36.4376 55.3633 36.8281C55.4727 37.2031 55.5273 37.75 55.5273 38.4688V40.5078H54.5195C52.5666 40.5078 50.91 40.7266 49.5508 41.1641C48.2072 41.6016 47.1366 42.211 46.3398 42.9922C45.5431 43.7734 44.957 44.6798 44.582 45.7109C44.2227 46.7265 44.043 47.8204 44.043 48.9922C44.043 50.6952 44.379 52.1016 45.0508 53.2109C45.7382 54.3202 46.6369 55.1406 47.7461 55.6719C48.871 56.2031 50.09 56.4687 51.4023 56.4688C52.2303 56.4688 52.918 56.328 53.4648 56.0469C54.0116 55.7813 54.4727 55.4218 54.8477 54.9688C55.2226 54.5001 55.5352 53.9921 55.7852 53.4453C55.7918 53.4305 55.7981 53.4153 55.8047 53.4004C55.9766 54.4129 56.2273 55.2797 56.5586 56H64.2461V55.6016C63.9493 54.961 63.7148 54.2187 63.543 53.375C63.3711 52.5156 63.2852 51.2578 63.2852 49.6016V38.5156C63.2852 36.5 62.8789 34.8828 62.0664 33.6641C61.2695 32.4454 60.1835 31.5625 58.8086 31.0156C57.4337 30.4532 55.8787 30.1719 54.1445 30.1719ZM25.5039 21.875L14.9805 56H23.6055L25.1074 49.625H33.4238L34.9258 56H43.5508L33.0039 21.875H25.5039ZM55.5273 49.625C55.5273 49.6576 55.5282 49.6901 55.5283 49.7227C55.3524 50.0119 55.0951 50.2691 54.7539 50.4922C54.3633 50.742 53.8709 50.8672 53.2773 50.8672C52.9963 50.8671 52.7382 50.8281 52.5039 50.75C52.2853 50.6562 52.0976 50.4529 51.9414 50.1406C51.8008 49.8281 51.7305 49.328 51.7305 48.6406C51.7305 48.1563 51.7774 47.6875 51.8711 47.2344C51.9648 46.7657 52.1212 46.3437 52.3398 45.9688C52.5741 45.5939 52.8634 45.2969 53.207 45.0781C53.5507 44.8438 53.965 44.7266 54.4492 44.7266H55.5273V49.625ZM31.9268 43.2734H26.6045L29.2656 31.9805L31.9268 43.2734Z" fill="#E9BA3A"/>
</svg>
