<svg width="135" height="200" viewBox="0 0 135 200" fill="none" xmlns="http://www.w3.org/2000/svg">
<path d="M0 0H135V200H0V0Z" fill="#3E3E3E"/>
<path d="M61.2094 74.0781V85H20.9906V75.6719L39.4594 52.1875C41.2406 49.75 42.6312 47.5938 43.6312 45.7188C44.6312 43.8438 45.35 42.1719 45.7875 40.7031C46.225 39.2031 46.4437 37.7812 46.4437 36.4375C46.4437 34.4375 46.2094 32.7188 45.7406 31.2812C45.2719 29.8125 44.5687 28.6875 43.6312 27.9062C42.725 27.0938 41.6 26.6875 40.2562 26.6875C38.6312 26.6875 37.2875 27.1875 36.225 28.1875C35.1625 29.1875 34.3656 30.5625 33.8344 32.3125C33.3344 34.0312 33.0844 35.9844 33.0844 38.1719H19.9125C19.9125 34.1094 20.7406 30.375 22.3969 26.9688C24.0844 23.5312 26.4437 20.8125 29.475 18.8125C32.5375 16.7812 36.2094 15.7656 40.4906 15.7656C44.6469 15.7656 48.1469 16.5469 50.9906 18.1094C53.8344 19.6719 55.975 21.9062 57.4125 24.8125C58.8812 27.6875 59.6156 31.1406 59.6156 35.1719C59.6156 37.4219 59.3187 39.625 58.725 41.7812C58.1312 43.9062 57.2875 46.0312 56.1937 48.1562C55.1 50.25 53.7406 52.3906 52.1156 54.5781C50.5219 56.7656 48.7406 59.0312 46.7719 61.375L37.8656 74.0781H61.2094Z" fill="#F5EFE9"/>
<path d="M113.962 44.875V56.7344C113.962 61.8594 113.478 66.2656 112.509 69.9531C111.541 73.6406 110.181 76.6719 108.431 79.0469C106.681 81.3906 104.603 83.125 102.197 84.25C99.7906 85.375 97.1344 85.9375 94.2281 85.9375C91.9156 85.9375 89.7437 85.5781 87.7125 84.8594C85.6812 84.1406 83.8375 83.0469 82.1812 81.5781C80.5562 80.0781 79.15 78.1875 77.9625 75.9062C76.8062 73.5938 75.9156 70.8594 75.2906 67.7031C74.6656 64.5156 74.3531 60.8594 74.3531 56.7344V44.875C74.3531 39.75 74.8375 35.3594 75.8062 31.7031C76.8062 28.0156 78.1812 25 79.9312 22.6562C81.6812 20.3125 83.7594 18.5938 86.1656 17.5C88.6031 16.375 91.275 15.8125 94.1812 15.8125C96.4625 15.8125 98.6187 16.1719 100.65 16.8906C102.681 17.5781 104.509 18.6562 106.134 20.125C107.759 21.5938 109.15 23.4844 110.306 25.7969C111.494 28.0781 112.4 30.8125 113.025 34C113.65 37.1562 113.962 40.7812 113.962 44.875ZM100.791 58.5625V42.9531C100.791 40.5469 100.681 38.4375 100.462 36.625C100.275 34.8125 99.9937 33.2812 99.6187 32.0312C99.275 30.7812 98.8219 29.7656 98.2594 28.9844C97.7281 28.2031 97.1187 27.6406 96.4312 27.2969C95.7437 26.9219 94.9937 26.7344 94.1812 26.7344C93.15 26.7344 92.2281 27.0156 91.4156 27.5781C90.6031 28.1406 89.9 29.0625 89.3062 30.3438C88.7125 31.5938 88.2594 33.2656 87.9469 35.3594C87.6656 37.4219 87.525 39.9531 87.525 42.9531V58.5625C87.525 60.9688 87.6187 63.0938 87.8062 64.9375C88.025 66.7812 88.3219 68.3594 88.6969 69.6719C89.1031 70.9531 89.5562 71.9844 90.0562 72.7656C90.5875 73.5469 91.1969 74.125 91.8844 74.5C92.6031 74.8438 93.3844 75.0156 94.2281 75.0156C95.2281 75.0156 96.1344 74.7344 96.9469 74.1719C97.7906 73.5781 98.4937 72.6406 99.0562 71.3594C99.6187 70.0781 100.041 68.3906 100.322 66.2969C100.634 64.1719 100.791 61.5938 100.791 58.5625Z" fill="#F5EFE9"/>
<path d="M50.1469 112.609V181H36.975V128.734L23.9437 133.75V122.781L48.6937 112.609H50.1469Z" fill="#F5EFE9"/>
<path d="M113.728 162.25C113.728 166.562 112.884 170.188 111.197 173.125C109.541 176.031 107.228 178.234 104.259 179.734C101.322 181.203 97.9781 181.938 94.2281 181.938C90.4781 181.938 87.1187 181.203 84.15 179.734C81.1812 178.234 78.8375 176.031 77.1187 173.125C75.4 170.188 74.5406 166.562 74.5406 162.25C74.5406 159.344 75.025 156.734 75.9937 154.422C76.9625 152.109 78.3219 150.109 80.0719 148.422C81.8531 146.734 83.9312 145.453 86.3062 144.578C88.7125 143.672 91.3219 143.219 94.1344 143.219C97.9156 143.219 101.291 144 104.259 145.562C107.228 147.125 109.541 149.328 111.197 152.172C112.884 155.016 113.728 158.375 113.728 162.25ZM100.556 161.312C100.556 159.25 100.291 157.484 99.7594 156.016C99.2594 154.547 98.525 153.422 97.5562 152.641C96.5875 151.859 95.4469 151.469 94.1344 151.469C92.8219 151.469 91.6812 151.859 90.7125 152.641C89.775 153.422 89.0406 154.547 88.5094 156.016C87.9781 157.484 87.7125 159.25 87.7125 161.312C87.7125 163.312 87.9625 165.031 88.4625 166.469C88.9937 167.906 89.7437 169.031 90.7125 169.844C91.7125 170.625 92.8844 171.016 94.2281 171.016C95.5719 171.016 96.7125 170.625 97.65 169.844C98.6187 169.031 99.3375 167.906 99.8062 166.469C100.306 165.031 100.556 163.312 100.556 161.312ZM112.603 130.891C112.603 134.391 111.822 137.469 110.259 140.125C108.697 142.781 106.525 144.859 103.744 146.359C100.994 147.859 97.8219 148.609 94.2281 148.609C90.6031 148.609 87.3844 147.859 84.5719 146.359C81.7906 144.859 79.6187 142.781 78.0562 140.125C76.4937 137.469 75.7125 134.391 75.7125 130.891C75.7125 126.766 76.4937 123.281 78.0562 120.438C79.65 117.594 81.8375 115.438 84.6187 113.969C87.4 112.5 90.5875 111.766 94.1812 111.766C97.775 111.766 100.962 112.5 103.744 113.969C106.525 115.438 108.697 117.594 110.259 120.438C111.822 123.281 112.603 126.766 112.603 130.891ZM99.4781 131.547C99.4781 129.766 99.275 128.219 98.8687 126.906C98.4937 125.562 97.9156 124.531 97.1344 123.812C96.3844 123.062 95.4 122.688 94.1812 122.688C93.025 122.688 92.0406 123.047 91.2281 123.766C90.4469 124.453 89.8531 125.469 89.4469 126.812C89.0719 128.125 88.8844 129.703 88.8844 131.547C88.8844 133.328 89.0719 134.891 89.4469 136.234C89.8531 137.578 90.4469 138.641 91.2281 139.422C92.0406 140.172 93.0406 140.547 94.2281 140.547C95.4156 140.547 96.3844 140.172 97.1344 139.422C97.9156 138.641 98.4937 137.578 98.8687 136.234C99.275 134.891 99.4781 133.328 99.4781 131.547Z" fill="#F5EFE9"/>
</svg>
