<svg width="135" height="200" viewBox="0 0 135 200" fill="none" xmlns="http://www.w3.org/2000/svg">
<path d="M0 0H135V200H0V0Z" fill="#3E3E3E"/>
<path d="M61.2094 74.0781V85H20.9906V75.6719L39.4594 52.1875C41.2406 49.75 42.6312 47.5938 43.6312 45.7188C44.6312 43.8438 45.35 42.1719 45.7875 40.7031C46.225 39.2031 46.4437 37.7812 46.4437 36.4375C46.4437 34.4375 46.2094 32.7188 45.7406 31.2812C45.2719 29.8125 44.5687 28.6875 43.6312 27.9062C42.725 27.0938 41.6 26.6875 40.2562 26.6875C38.6312 26.6875 37.2875 27.1875 36.225 28.1875C35.1625 29.1875 34.3656 30.5625 33.8344 32.3125C33.3344 34.0312 33.0844 35.9844 33.0844 38.1719H19.9125C19.9125 34.1094 20.7406 30.375 22.3969 26.9688C24.0844 23.5312 26.4437 20.8125 29.475 18.8125C32.5375 16.7812 36.2094 15.7656 40.4906 15.7656C44.6469 15.7656 48.1469 16.5469 50.9906 18.1094C53.8344 19.6719 55.975 21.9062 57.4125 24.8125C58.8812 27.6875 59.6156 31.1406 59.6156 35.1719C59.6156 37.4219 59.3187 39.625 58.725 41.7812C58.1312 43.9062 57.2875 46.0312 56.1937 48.1562C55.1 50.25 53.7406 52.3906 52.1156 54.5781C50.5219 56.7656 48.7406 59.0312 46.7719 61.375L37.8656 74.0781H61.2094Z" fill="#F5EFE9"/>
<path d="M113.962 44.875V56.7344C113.962 61.8594 113.478 66.2656 112.509 69.9531C111.541 73.6406 110.181 76.6719 108.431 79.0469C106.681 81.3906 104.603 83.125 102.197 84.25C99.7906 85.375 97.1344 85.9375 94.2281 85.9375C91.9156 85.9375 89.7437 85.5781 87.7125 84.8594C85.6812 84.1406 83.8375 83.0469 82.1812 81.5781C80.5562 80.0781 79.15 78.1875 77.9625 75.9062C76.8062 73.5938 75.9156 70.8594 75.2906 67.7031C74.6656 64.5156 74.3531 60.8594 74.3531 56.7344V44.875C74.3531 39.75 74.8375 35.3594 75.8062 31.7031C76.8062 28.0156 78.1812 25 79.9312 22.6562C81.6812 20.3125 83.7594 18.5938 86.1656 17.5C88.6031 16.375 91.275 15.8125 94.1812 15.8125C96.4625 15.8125 98.6187 16.1719 100.65 16.8906C102.681 17.5781 104.509 18.6562 106.134 20.125C107.759 21.5938 109.15 23.4844 110.306 25.7969C111.494 28.0781 112.4 30.8125 113.025 34C113.65 37.1562 113.962 40.7812 113.962 44.875ZM100.791 58.5625V42.9531C100.791 40.5469 100.681 38.4375 100.462 36.625C100.275 34.8125 99.9937 33.2812 99.6187 32.0312C99.275 30.7812 98.8219 29.7656 98.2594 28.9844C97.7281 28.2031 97.1187 27.6406 96.4312 27.2969C95.7437 26.9219 94.9937 26.7344 94.1812 26.7344C93.15 26.7344 92.2281 27.0156 91.4156 27.5781C90.6031 28.1406 89.9 29.0625 89.3062 30.3438C88.7125 31.5938 88.2594 33.2656 87.9469 35.3594C87.6656 37.4219 87.525 39.9531 87.525 42.9531V58.5625C87.525 60.9688 87.6187 63.0938 87.8062 64.9375C88.025 66.7812 88.3219 68.3594 88.6969 69.6719C89.1031 70.9531 89.5562 71.9844 90.0562 72.7656C90.5875 73.5469 91.1969 74.125 91.8844 74.5C92.6031 74.8438 93.3844 75.0156 94.2281 75.0156C95.2281 75.0156 96.1344 74.7344 96.9469 74.1719C97.7906 73.5781 98.4937 72.6406 99.0562 71.3594C99.6187 70.0781 100.041 68.3906 100.322 66.2969C100.634 64.1719 100.791 61.5938 100.791 58.5625Z" fill="#F5EFE9"/>
<path d="M50.1469 112.609V181H36.975V128.734L23.9437 133.75V122.781L48.6937 112.609H50.1469Z" fill="#F5EFE9"/>
<path d="M82.8375 170.359H83.4937C86.4937 170.359 89.0562 169.922 91.1812 169.047C93.3375 168.172 95.0875 166.891 96.4312 165.203C97.8062 163.484 98.8062 161.391 99.4312 158.922C100.056 156.422 100.369 153.562 100.369 150.344V137.172C100.369 134.734 100.197 132.625 99.8531 130.844C99.5094 129.031 99.025 127.531 98.4 126.344C97.775 125.125 97.0719 124.219 96.2906 123.625C95.5094 123.031 94.6656 122.734 93.7594 122.734C92.6969 122.734 91.7594 123.109 90.9469 123.859C90.1344 124.578 89.4469 125.547 88.8844 126.766C88.3531 127.984 87.9469 129.375 87.6656 130.938C87.3844 132.5 87.2437 134.125 87.2437 135.812C87.2437 137.531 87.3844 139.172 87.6656 140.734C87.9469 142.266 88.3687 143.625 88.9312 144.812C89.4937 145.969 90.2125 146.875 91.0875 147.531C91.9625 148.188 93.0094 148.516 94.2281 148.516C95.2281 148.516 96.15 148.234 96.9937 147.672C97.8375 147.078 98.5719 146.312 99.1969 145.375C99.8531 144.406 100.353 143.344 100.697 142.188C101.072 141 101.275 139.797 101.306 138.578L105.572 141.25C105.572 143.375 105.181 145.484 104.4 147.578C103.65 149.672 102.603 151.578 101.259 153.297C99.9156 155.016 98.3531 156.391 96.5719 157.422C94.8219 158.422 92.9312 158.922 90.9 158.922C88.1812 158.922 85.775 158.344 83.6812 157.188C81.5875 156 79.8219 154.375 78.3844 152.312C76.9781 150.25 75.9156 147.828 75.1969 145.047C74.4781 142.266 74.1187 139.234 74.1187 135.953C74.1187 132.641 74.5719 129.531 75.4781 126.625C76.4156 123.688 77.7437 121.109 79.4625 118.891C81.1812 116.672 83.2594 114.938 85.6969 113.688C88.1344 112.406 90.8531 111.766 93.8531 111.766C96.8219 111.766 99.5094 112.422 101.916 113.734C104.322 115.047 106.384 116.938 108.103 119.406C109.822 121.844 111.134 124.781 112.041 128.219C112.978 131.625 113.447 135.438 113.447 139.656V144.344C113.447 148.844 113.056 153.016 112.275 156.859C111.494 160.672 110.306 164.109 108.712 167.172C107.119 170.234 105.134 172.859 102.759 175.047C100.384 177.203 97.6031 178.859 94.4156 180.016C91.2594 181.141 87.6812 181.703 83.6812 181.703H82.8375V170.359Z" fill="#F5EFE9"/>
</svg>
