<svg width="135" height="200" viewBox="0 0 135 200" fill="none" xmlns="http://www.w3.org/2000/svg">
<path d="M0 0H135V200H0V0Z" fill="#3E3E3E"/>
<path d="M61.2094 74.0781V85H20.9906V75.6719L39.4594 52.1875C41.2406 49.75 42.6312 47.5938 43.6312 45.7188C44.6312 43.8438 45.35 42.1719 45.7875 40.7031C46.225 39.2031 46.4437 37.7812 46.4437 36.4375C46.4437 34.4375 46.2094 32.7188 45.7406 31.2812C45.2719 29.8125 44.5687 28.6875 43.6312 27.9062C42.725 27.0938 41.6 26.6875 40.2562 26.6875C38.6312 26.6875 37.2875 27.1875 36.225 28.1875C35.1625 29.1875 34.3656 30.5625 33.8344 32.3125C33.3344 34.0312 33.0844 35.9844 33.0844 38.1719H19.9125C19.9125 34.1094 20.7406 30.375 22.3969 26.9688C24.0844 23.5312 26.4437 20.8125 29.475 18.8125C32.5375 16.7812 36.2094 15.7656 40.4906 15.7656C44.6469 15.7656 48.1469 16.5469 50.9906 18.1094C53.8344 19.6719 55.975 21.9062 57.4125 24.8125C58.8812 27.6875 59.6156 31.1406 59.6156 35.1719C59.6156 37.4219 59.3187 39.625 58.725 41.7812C58.1312 43.9062 57.2875 46.0312 56.1937 48.1562C55.1 50.25 53.7406 52.3906 52.1156 54.5781C50.5219 56.7656 48.7406 59.0312 46.7719 61.375L37.8656 74.0781H61.2094Z" fill="#F5EFE9"/>
<path d="M113.962 44.875V56.7344C113.962 61.8594 113.478 66.2656 112.509 69.9531C111.541 73.6406 110.181 76.6719 108.431 79.0469C106.681 81.3906 104.603 83.125 102.197 84.25C99.7906 85.375 97.1344 85.9375 94.2281 85.9375C91.9156 85.9375 89.7437 85.5781 87.7125 84.8594C85.6812 84.1406 83.8375 83.0469 82.1812 81.5781C80.5562 80.0781 79.15 78.1875 77.9625 75.9062C76.8062 73.5938 75.9156 70.8594 75.2906 67.7031C74.6656 64.5156 74.3531 60.8594 74.3531 56.7344V44.875C74.3531 39.75 74.8375 35.3594 75.8062 31.7031C76.8062 28.0156 78.1812 25 79.9312 22.6562C81.6812 20.3125 83.7594 18.5938 86.1656 17.5C88.6031 16.375 91.275 15.8125 94.1812 15.8125C96.4625 15.8125 98.6187 16.1719 100.65 16.8906C102.681 17.5781 104.509 18.6562 106.134 20.125C107.759 21.5938 109.15 23.4844 110.306 25.7969C111.494 28.0781 112.4 30.8125 113.025 34C113.65 37.1562 113.962 40.7812 113.962 44.875ZM100.791 58.5625V42.9531C100.791 40.5469 100.681 38.4375 100.462 36.625C100.275 34.8125 99.9937 33.2812 99.6187 32.0312C99.275 30.7812 98.8219 29.7656 98.2594 28.9844C97.7281 28.2031 97.1187 27.6406 96.4312 27.2969C95.7437 26.9219 94.9937 26.7344 94.1812 26.7344C93.15 26.7344 92.2281 27.0156 91.4156 27.5781C90.6031 28.1406 89.9 29.0625 89.3062 30.3438C88.7125 31.5938 88.2594 33.2656 87.9469 35.3594C87.6656 37.4219 87.525 39.9531 87.525 42.9531V58.5625C87.525 60.9688 87.6187 63.0938 87.8062 64.9375C88.025 66.7812 88.3219 68.3594 88.6969 69.6719C89.1031 70.9531 89.5562 71.9844 90.0562 72.7656C90.5875 73.5469 91.1969 74.125 91.8844 74.5C92.6031 74.8438 93.3844 75.0156 94.2281 75.0156C95.2281 75.0156 96.1344 74.7344 96.9469 74.1719C97.7906 73.5781 98.4937 72.6406 99.0562 71.3594C99.6187 70.0781 100.041 68.3906 100.322 66.2969C100.634 64.1719 100.791 61.5938 100.791 58.5625Z" fill="#F5EFE9"/>
<path d="M61.2094 170.078V181H20.9906V171.672L39.4594 148.188C41.2406 145.75 42.6312 143.594 43.6312 141.719C44.6312 139.844 45.35 138.172 45.7875 136.703C46.225 135.203 46.4437 133.781 46.4437 132.438C46.4437 130.438 46.2094 128.719 45.7406 127.281C45.2719 125.812 44.5687 124.688 43.6312 123.906C42.725 123.094 41.6 122.688 40.2562 122.688C38.6312 122.688 37.2875 123.188 36.225 124.188C35.1625 125.188 34.3656 126.562 33.8344 128.312C33.3344 130.031 33.0844 131.984 33.0844 134.172H19.9125C19.9125 130.109 20.7406 126.375 22.3969 122.969C24.0844 119.531 26.4437 116.812 29.475 114.812C32.5375 112.781 36.2094 111.766 40.4906 111.766C44.6469 111.766 48.1469 112.547 50.9906 114.109C53.8344 115.672 55.975 117.906 57.4125 120.812C58.8812 123.688 59.6156 127.141 59.6156 131.172C59.6156 133.422 59.3187 135.625 58.725 137.781C58.1312 139.906 57.2875 142.031 56.1937 144.156C55.1 146.25 53.7406 148.391 52.1156 150.578C50.5219 152.766 48.7406 155.031 46.7719 157.375L37.8656 170.078H61.2094Z" fill="#F5EFE9"/>
<path d="M86.1656 140.828H92.5875C94.2125 140.828 95.5562 140.453 96.6187 139.703C97.6812 138.922 98.4625 137.828 98.9625 136.422C99.4625 134.984 99.7125 133.312 99.7125 131.406C99.7125 129.719 99.4781 128.234 99.0094 126.953C98.5406 125.641 97.8219 124.609 96.8531 123.859C95.8844 123.078 94.6656 122.688 93.1969 122.688C92.0719 122.688 91.0094 123 90.0094 123.625C89.0406 124.219 88.275 125.094 87.7125 126.25C87.15 127.406 86.8687 128.781 86.8687 130.375H73.6969C73.6969 126.625 74.5406 123.359 76.2281 120.578C77.9469 117.797 80.2594 115.641 83.1656 114.109C86.0719 112.547 89.2906 111.766 92.8219 111.766C96.7906 111.766 100.275 112.5 103.275 113.969C106.275 115.438 108.619 117.625 110.306 120.531C111.994 123.406 112.837 126.969 112.837 131.219C112.837 133.406 112.431 135.516 111.619 137.547C110.806 139.547 109.619 141.359 108.056 142.984C106.494 144.609 104.587 145.891 102.337 146.828C100.087 147.766 97.5406 148.234 94.6969 148.234H86.1656V140.828ZM86.1656 151.469V144.297H94.6969C97.9156 144.297 100.712 144.719 103.087 145.562C105.462 146.375 107.431 147.562 108.994 149.125C110.587 150.688 111.775 152.547 112.556 154.703C113.337 156.828 113.728 159.203 113.728 161.828C113.728 165.016 113.197 167.859 112.134 170.359C111.072 172.859 109.587 174.969 107.681 176.688C105.775 178.406 103.556 179.719 101.025 180.625C98.4937 181.5 95.7437 181.938 92.775 181.938C90.3062 181.938 87.8844 181.547 85.5094 180.766C83.1656 179.984 81.0562 178.781 79.1812 177.156C77.3062 175.531 75.8219 173.484 74.7281 171.016C73.6344 168.547 73.0875 165.625 73.0875 162.25H86.2125C86.2125 163.938 86.5094 165.453 87.1031 166.797C87.7281 168.109 88.5562 169.141 89.5875 169.891C90.6187 170.641 91.7906 171.016 93.1031 171.016C94.6344 171.016 95.9625 170.625 97.0875 169.844C98.2125 169.062 99.0719 167.969 99.6656 166.562C100.259 165.156 100.556 163.531 100.556 161.688C100.556 159.25 100.244 157.297 99.6187 155.828C98.9937 154.328 98.0875 153.234 96.9 152.547C95.7125 151.828 94.275 151.469 92.5875 151.469H86.1656Z" fill="#F5EFE9"/>
</svg>
