<svg width="135" height="200" viewBox="0 0 135 200" fill="none" xmlns="http://www.w3.org/2000/svg">
<path d="M0 0H135V200H0V0Z" fill="#3E3E3E"/>
<path d="M61.2094 74.0781V85H20.9906V75.6719L39.4594 52.1875C41.2406 49.75 42.6312 47.5938 43.6312 45.7188C44.6312 43.8438 45.35 42.1719 45.7875 40.7031C46.225 39.2031 46.4437 37.7812 46.4437 36.4375C46.4437 34.4375 46.2094 32.7188 45.7406 31.2812C45.2719 29.8125 44.5687 28.6875 43.6312 27.9062C42.725 27.0938 41.6 26.6875 40.2562 26.6875C38.6312 26.6875 37.2875 27.1875 36.225 28.1875C35.1625 29.1875 34.3656 30.5625 33.8344 32.3125C33.3344 34.0312 33.0844 35.9844 33.0844 38.1719H19.9125C19.9125 34.1094 20.7406 30.375 22.3969 26.9688C24.0844 23.5312 26.4437 20.8125 29.475 18.8125C32.5375 16.7812 36.2094 15.7656 40.4906 15.7656C44.6469 15.7656 48.1469 16.5469 50.9906 18.1094C53.8344 19.6719 55.975 21.9062 57.4125 24.8125C58.8812 27.6875 59.6156 31.1406 59.6156 35.1719C59.6156 37.4219 59.3187 39.625 58.725 41.7812C58.1312 43.9062 57.2875 46.0312 56.1937 48.1562C55.1 50.25 53.7406 52.3906 52.1156 54.5781C50.5219 56.7656 48.7406 59.0312 46.7719 61.375L37.8656 74.0781H61.2094Z" fill="#F5EFE9"/>
<path d="M113.962 44.875V56.7344C113.962 61.8594 113.478 66.2656 112.509 69.9531C111.541 73.6406 110.181 76.6719 108.431 79.0469C106.681 81.3906 104.603 83.125 102.197 84.25C99.7906 85.375 97.1344 85.9375 94.2281 85.9375C91.9156 85.9375 89.7437 85.5781 87.7125 84.8594C85.6812 84.1406 83.8375 83.0469 82.1812 81.5781C80.5562 80.0781 79.15 78.1875 77.9625 75.9062C76.8062 73.5938 75.9156 70.8594 75.2906 67.7031C74.6656 64.5156 74.3531 60.8594 74.3531 56.7344V44.875C74.3531 39.75 74.8375 35.3594 75.8062 31.7031C76.8062 28.0156 78.1812 25 79.9312 22.6562C81.6812 20.3125 83.7594 18.5938 86.1656 17.5C88.6031 16.375 91.275 15.8125 94.1812 15.8125C96.4625 15.8125 98.6187 16.1719 100.65 16.8906C102.681 17.5781 104.509 18.6562 106.134 20.125C107.759 21.5938 109.15 23.4844 110.306 25.7969C111.494 28.0781 112.4 30.8125 113.025 34C113.65 37.1562 113.962 40.7812 113.962 44.875ZM100.791 58.5625V42.9531C100.791 40.5469 100.681 38.4375 100.462 36.625C100.275 34.8125 99.9937 33.2812 99.6187 32.0312C99.275 30.7812 98.8219 29.7656 98.2594 28.9844C97.7281 28.2031 97.1187 27.6406 96.4312 27.2969C95.7437 26.9219 94.9937 26.7344 94.1812 26.7344C93.15 26.7344 92.2281 27.0156 91.4156 27.5781C90.6031 28.1406 89.9 29.0625 89.3062 30.3438C88.7125 31.5938 88.2594 33.2656 87.9469 35.3594C87.6656 37.4219 87.525 39.9531 87.525 42.9531V58.5625C87.525 60.9688 87.6187 63.0938 87.8062 64.9375C88.025 66.7812 88.3219 68.3594 88.6969 69.6719C89.1031 70.9531 89.5562 71.9844 90.0562 72.7656C90.5875 73.5469 91.1969 74.125 91.8844 74.5C92.6031 74.8438 93.3844 75.0156 94.2281 75.0156C95.2281 75.0156 96.1344 74.7344 96.9469 74.1719C97.7906 73.5781 98.4937 72.6406 99.0562 71.3594C99.6187 70.0781 100.041 68.3906 100.322 66.2969C100.634 64.1719 100.791 61.5938 100.791 58.5625Z" fill="#F5EFE9"/>
<path d="M61.2094 170.078V181H20.9906V171.672L39.4594 148.188C41.2406 145.75 42.6312 143.594 43.6312 141.719C44.6312 139.844 45.35 138.172 45.7875 136.703C46.225 135.203 46.4437 133.781 46.4437 132.438C46.4437 130.438 46.2094 128.719 45.7406 127.281C45.2719 125.812 44.5687 124.688 43.6312 123.906C42.725 123.094 41.6 122.688 40.2562 122.688C38.6312 122.688 37.2875 123.188 36.225 124.188C35.1625 125.188 34.3656 126.562 33.8344 128.312C33.3344 130.031 33.0844 131.984 33.0844 134.172H19.9125C19.9125 130.109 20.7406 126.375 22.3969 122.969C24.0844 119.531 26.4437 116.812 29.475 114.812C32.5375 112.781 36.2094 111.766 40.4906 111.766C44.6469 111.766 48.1469 112.547 50.9906 114.109C53.8344 115.672 55.975 117.906 57.4125 120.812C58.8812 123.688 59.6156 127.141 59.6156 131.172C59.6156 133.422 59.3187 135.625 58.725 137.781C58.1312 139.906 57.2875 142.031 56.1937 144.156C55.1 146.25 53.7406 148.391 52.1156 150.578C50.5219 152.766 48.7406 155.031 46.7719 157.375L37.8656 170.078H61.2094Z" fill="#F5EFE9"/>
<path d="M86.2594 150.062L75.7594 147.438L79.1812 112.75H112.134V124H89.9625L88.6969 138.672C89.4156 138.172 90.4781 137.625 91.8844 137.031C93.3219 136.438 94.9156 136.141 96.6656 136.141C99.5094 136.141 102.009 136.656 104.166 137.688C106.353 138.719 108.197 140.219 109.697 142.188C111.197 144.156 112.337 146.562 113.119 149.406C113.9 152.25 114.291 155.469 114.291 159.062C114.291 162.094 113.884 164.984 113.072 167.734C112.259 170.484 111.009 172.922 109.322 175.047C107.634 177.172 105.541 178.859 103.041 180.109C100.572 181.328 97.65 181.938 94.275 181.938C91.7437 181.938 89.3062 181.5 86.9625 180.625C84.6187 179.75 82.5094 178.453 80.6344 176.734C78.7594 174.984 77.2594 172.891 76.1344 170.453C75.0094 167.984 74.4469 165.172 74.4469 162.016H87.4312C87.5875 163.859 87.9469 165.453 88.5094 166.797C89.1031 168.141 89.8844 169.188 90.8531 169.938C91.8219 170.656 92.9469 171.016 94.2281 171.016C95.5094 171.016 96.5875 170.703 97.4625 170.078C98.3687 169.422 99.0875 168.516 99.6187 167.359C100.15 166.203 100.525 164.859 100.744 163.328C100.994 161.766 101.119 160.094 101.119 158.312C101.119 156.5 100.962 154.859 100.65 153.391C100.337 151.922 99.8531 150.656 99.1969 149.594C98.5406 148.531 97.6812 147.719 96.6187 147.156C95.5875 146.594 94.3844 146.312 93.0094 146.312C91.0719 146.312 89.6187 146.719 88.65 147.531C87.7125 148.312 86.9156 149.156 86.2594 150.062Z" fill="#F5EFE9"/>
</svg>
